<svg version="1.1" id="Layer_1" xmlns="http://www.w3.org/2000/svg" xmlns:xlink="http://www.w3.org/1999/xlink" x="0px" y="0px"
	 width="100%" viewBox="0 0 592 592" enable-background="new 0 0 592 592" xml:space="preserve">
<path fill="#000000" opacity="1.000000" stroke="none" 
	d="
M593.000000,336.000000 
	C593.000000,414.689301 593.000000,493.378571 592.699829,572.683838 
	C589.947144,575.457275 585.806213,576.435547 584.963013,579.482300 
	C583.193054,585.877625 578.559204,588.900208 572.622131,591.470337 
	C574.225220,592.196289 575.112610,592.598145 576.000000,593.000000 
	C389.644043,593.000000 203.288055,593.000000 16.484749,592.727539 
	C12.536348,584.653381 7.479388,582.482605 1.000000,586.000000 
	C1.000000,487.977356 1.000000,389.954712 1.194800,291.652039 
	C2.463025,293.140015 3.606050,292.910706 5.032458,291.686188 
	C7.105605,289.906555 9.745770,288.640228 12.293712,288.648010 
	C17.771770,288.664764 20.530516,285.405426 23.475918,281.520264 
	C32.049168,270.211517 43.127285,263.033142 57.760868,262.998260 
	C64.945305,262.981140 70.308563,260.119934 75.478462,255.301971 
	C89.563866,242.175507 98.434769,225.601730 107.064018,208.869553 
	C110.807739,201.610443 116.196297,195.439713 119.756691,188.044724 
	C121.575096,184.267883 125.151939,181.506592 128.724213,178.856262 
	C136.966675,172.741013 146.204910,167.897034 152.869980,159.684769 
	C158.098267,153.242798 165.220230,149.262192 172.605270,145.545227 
	C188.652252,137.468613 203.006485,127.463661 209.725677,109.606041 
	C210.901505,106.481033 213.016510,103.753738 215.533493,101.546661 
	C222.167755,95.729256 227.097198,88.721375 230.726974,80.732094 
	C235.209976,70.864807 241.772278,63.179424 251.909256,58.458763 
	C258.411713,55.430645 265.531586,53.703564 271.552277,49.832691 
	C279.278809,44.865116 287.497559,41.987457 296.556915,40.555607 
	C308.738892,38.630203 320.765259,36.431110 333.255798,36.918022 
	C352.693146,37.675743 370.591644,43.827934 387.785767,51.924644 
	C405.815491,60.414825 425.032928,66.514290 441.622864,77.984421 
	C442.028625,78.264961 442.511902,78.442848 442.974579,78.630135 
	C450.386200,81.630295 456.366272,86.536217 461.890900,92.235832 
	C478.545013,109.417458 492.132568,128.997375 506.235992,148.190765 
	C511.222168,154.976501 515.154175,162.154297 517.754700,170.195648 
	C519.603394,175.912125 521.550049,181.548233 522.490234,187.514282 
	C523.634583,194.776093 525.478088,201.838379 528.662903,208.545609 
	C530.633362,212.695419 533.082581,215.397186 537.974121,216.517242 
	C546.070557,218.371155 548.652649,225.335220 544.040466,232.144592 
	C540.855713,236.846619 540.863403,241.759308 541.363525,246.984558 
	C543.928589,273.783661 551.194458,298.876709 566.703003,321.357056 
	C572.227356,329.364868 578.008423,335.718689 588.552551,335.387451 
	C590.027161,335.341156 591.517151,335.783722 593.000000,336.000000 
M433.645691,463.554016 
	C432.631317,451.289459 431.584290,439.027496 430.624390,426.758667 
	C430.368805,423.491791 428.967224,422.174408 425.730682,423.281158 
	C422.109100,424.519623 418.553131,426.019318 414.852142,426.934143 
	C411.878693,427.669098 411.152344,429.400177 411.429871,432.015686 
	C413.464233,451.188477 415.548615,470.357117 418.818024,489.368561 
	C420.169312,497.226257 421.894684,505.021271 423.155457,512.891968 
	C423.573853,515.504028 424.490265,519.296875 420.659698,519.983459 
	C417.072906,520.626282 416.284027,517.214050 415.646790,514.379395 
	C415.610413,514.217651 415.616394,514.046570 415.582458,513.884033 
	C411.095428,492.378998 408.310486,470.653168 406.412506,448.765961 
	C404.366272,425.168610 403.614532,401.568695 404.883606,377.935272 
	C405.105042,373.810699 404.647278,369.171417 407.705200,364.426636 
	C408.072388,366.139496 408.299500,366.763000 408.327911,367.395416 
	C409.015167,382.690826 409.834290,397.983002 410.256012,413.286041 
	C410.379272,417.758942 412.165497,418.456116 415.804321,417.275726 
	C420.711273,415.683960 425.602020,414.041779 430.514679,412.467957 
	C433.740204,411.434631 434.898407,409.769989 433.927216,406.110382 
	C431.155823,395.666962 429.297638,385.020203 427.493042,374.359528 
	C424.908112,359.089050 421.921448,343.882385 414.144196,330.165405 
	C403.613251,311.591705 387.542419,298.360748 370.988586,285.614319 
	C370.539795,285.268738 369.784088,285.321655 368.800568,285.108246 
	C366.534424,291.720184 364.424042,298.229462 360.093689,303.645172 
	C345.963562,321.316833 327.611115,327.088745 305.825287,322.560516 
	C281.996216,317.607513 266.437561,303.065613 257.796570,281.277496 
	C258.533051,278.943268 261.148315,279.990387 261.202728,277.552673 
	C242.206726,280.846802 225.168488,288.313599 210.400635,300.480774 
	C178.788681,326.525696 161.110886,361.024841 150.814835,399.915863 
	C150.061783,402.760437 151.026215,404.313049 153.395889,405.567596 
	C168.878128,413.764099 184.502609,421.512604 202.118988,424.198730 
	C209.417480,425.311615 210.986862,424.211670 211.682083,416.895935 
	C212.193680,411.512817 212.859024,406.101562 215.327805,400.754364 
	C217.401001,403.638611 217.215759,406.488922 217.347702,409.289276 
	C217.866333,420.296661 216.812408,431.257202 216.285416,442.226318 
	C215.550919,457.515015 214.463913,472.786896 213.513077,488.065033 
	C212.800156,499.520569 212.062897,510.974640 211.339462,522.429504 
	C211.210571,524.470398 210.881927,526.591125 214.018433,526.609680 
	C218.998383,526.639099 223.878235,527.729370 228.904984,527.692932 
	C246.356842,527.566406 263.764740,526.344482 281.187927,525.860779 
	C298.621429,525.376770 316.101440,524.923706 333.580627,526.413330 
	C345.647797,527.441711 357.821625,526.801880 369.962372,527.431885 
	C384.919647,528.208069 399.953369,527.857910 414.943756,527.527344 
	C424.883301,527.308105 434.805450,526.279175 444.733582,525.586670 
	C446.272247,525.479370 447.766754,525.188843 447.920502,522.789612 
	C444.419830,520.679688 442.200348,517.739624 441.388214,513.213989 
	C438.481079,497.013763 435.790283,480.788208 433.645691,463.554016 
M347.932861,261.621613 
	C367.769714,258.559174 382.938812,240.320419 381.700439,216.988937 
	C381.508179,213.365982 379.992004,211.399719 376.211975,211.399323 
	C373.723206,211.399063 371.229553,211.472244 368.809174,210.569138 
	C365.829437,209.457321 363.481720,209.869965 361.686951,213.017349 
	C357.638702,220.116455 347.111847,217.699997 342.933655,213.230423 
	C341.766632,211.982010 341.418518,210.630478 342.474731,209.187851 
	C343.510010,207.773773 344.875305,207.479675 346.419006,208.371658 
	C347.572632,209.038239 348.663452,209.823669 349.850769,210.419678 
	C352.156036,211.576859 354.675262,212.615601 356.693695,210.196014 
	C358.750854,207.729980 357.134430,205.555634 355.535553,203.512085 
	C354.560303,202.265610 352.759399,201.491943 353.129608,199.181351 
	C353.803192,198.726852 354.714478,198.282455 355.408386,197.612839 
	C357.811798,195.293488 358.148010,188.549698 355.799805,187.313721 
	C352.859863,185.766281 349.664368,185.955643 346.620605,187.186111 
	C343.851959,188.305359 343.539062,190.804535 343.369843,193.402893 
	C342.631836,204.734268 336.130310,212.439743 325.292084,214.924011 
	C313.129333,217.711899 300.086273,209.897125 299.797729,199.111816 
	C299.660980,194.000061 297.180115,191.855194 293.007538,190.751358 
	C290.289673,190.032318 287.446014,189.772049 284.649353,189.371460 
	C280.216827,188.736557 277.025879,189.659103 277.141479,195.127914 
	C277.176300,196.774551 276.639465,198.517853 274.709778,199.097580 
	C272.797943,199.671921 271.533264,198.462189 270.410706,197.204163 
	C268.294891,194.833008 266.166595,192.497528 263.177124,191.186981 
	C259.724091,189.673218 256.761139,190.207092 255.395157,193.931473 
	C253.682037,198.602325 252.122360,203.421158 252.449921,208.491516 
	C252.722153,212.705719 254.193542,216.954590 258.868256,217.415222 
	C263.501434,217.871826 266.079102,218.649902 268.015778,223.768143 
	C271.091003,231.895218 277.734222,237.786667 284.062561,243.829224 
	C297.123505,256.300354 296.608002,258.202820 285.309906,271.447174 
	C281.177490,276.291412 275.435638,278.703979 269.925629,281.446533 
	C267.259521,282.773560 265.319946,284.558807 266.966614,287.721832 
	C271.072021,295.607880 277.646606,300.031281 286.438477,301.387939 
	C291.445068,302.160522 293.708496,298.013794 297.101074,295.889160 
	C298.081329,295.275238 298.939240,294.457336 299.819702,293.694275 
	C305.322784,288.924957 308.590149,289.623627 310.533203,296.517914 
	C311.745972,300.820953 314.111481,303.918915 317.562042,306.463715 
	C320.904938,308.929169 324.192902,311.455933 327.626495,313.810486 
	C329.939484,315.396545 331.660339,315.431671 333.912659,314.640625 
	C344.248627,311.010406 352.151154,304.505920 357.446564,294.866730 
	C359.351410,291.399292 358.922119,288.554871 355.622925,286.168427 
	C353.027924,284.291351 350.509247,281.988220 349.407867,279.102448 
	C346.615875,271.786865 341.226044,270.144104 334.108124,270.219727 
	C328.945648,270.274506 323.877991,268.745880 319.848602,265.086304 
	C318.377228,263.750000 316.609863,262.200623 317.884857,259.982788 
	C319.041962,257.970062 321.142212,258.765259 322.872559,259.212921 
	C330.805969,261.265381 338.770721,262.906372 347.932861,261.621613 
M208.615265,451.227142 
	C208.947662,446.924927 209.340393,442.626221 209.593781,438.319366 
	C209.803955,434.746704 208.567352,432.055634 204.621552,431.502899 
	C191.521347,429.667725 179.004684,425.889313 167.088654,420.171844 
	C163.692734,418.542450 161.694595,419.050629 161.277557,423.089508 
	C160.579041,429.854431 159.929947,436.625580 159.129883,443.378693 
	C156.429459,466.172485 155.799805,489.105957 154.317245,511.983002 
	C153.978287,517.213257 156.194138,518.814392 160.889313,519.728821 
	C173.408463,522.166992 186.088959,523.342590 198.678085,525.204590 
	C201.750015,525.658936 202.502701,524.121155 202.700165,521.619568 
	C203.340286,513.509521 203.966766,505.398224 204.658997,497.292542 
	C205.944138,482.244110 207.272003,467.199310 208.615265,451.227142 
M279.125061,174.407440 
	C276.993347,183.459244 277.521851,184.312241 286.333954,186.075302 
	C286.822937,186.173141 287.292938,186.378967 287.784058,186.451187 
	C299.957306,188.241409 302.072235,187.048004 307.466675,177.348389 
	C311.767853,169.614502 318.991028,166.078094 327.725922,165.709137 
	C330.779266,165.580170 333.407043,166.865082 332.512054,170.340042 
	C331.744751,173.319275 333.011749,174.499146 335.009796,176.023727 
	C341.762909,181.176529 345.054321,181.989502 353.223846,182.723862 
	C357.903503,183.144516 360.406738,181.607269 362.962433,178.017151 
	C365.360626,174.648331 366.200012,172.610809 361.341309,171.335724 
	C359.027832,170.728607 357.263458,169.191971 358.009613,166.634293 
	C358.766754,164.038971 361.120331,164.050873 363.401794,164.435333 
	C366.551575,164.966110 369.476044,166.116776 372.374756,167.422852 
	C377.912323,169.917892 380.079529,168.429550 379.970764,162.262100 
	C379.917908,159.265869 379.787140,156.269028 379.608276,153.277451 
	C379.259583,147.443848 375.156158,144.497803 369.528900,145.846725 
	C366.787659,146.503799 363.965607,147.409500 361.209991,147.316711 
	C350.711884,146.963242 341.062012,150.052017 331.356689,153.515091 
	C326.559082,155.226974 321.335968,155.824295 316.260651,156.651428 
	C313.040802,157.176163 310.141724,156.536942 309.695496,152.457504 
	C309.345062,149.253525 307.265839,149.954407 305.268890,150.435989 
	C299.780304,151.759628 294.324432,153.244186 288.794281,154.361526 
	C285.203827,155.086945 283.261383,157.091003 282.451782,160.506348 
	C281.418457,164.865662 280.342560,169.214859 279.125061,174.407440 
M304.797546,202.544525 
	C309.416687,209.593353 316.489075,212.378448 325.122040,210.548309 
	C332.632812,208.956039 338.364746,202.274612 339.436127,193.862946 
	C340.150330,188.256027 335.930450,180.517441 330.402954,178.495926 
	C323.716766,176.050644 316.646851,175.701935 311.156036,180.858093 
	C305.274658,186.381058 301.578156,193.231277 304.797546,202.544525 
M374.209717,175.257523 
	C371.030609,174.852356 369.337250,176.478271 368.354858,179.208923 
	C373.523804,183.171982 374.615265,187.234787 371.879089,191.672867 
	C368.393768,197.326019 365.563385,191.570038 361.963440,190.765167 
	C360.354370,195.973770 361.753510,199.969498 365.450134,203.380768 
	C369.246307,206.883911 375.960419,208.536957 379.287048,206.951706 
	C381.540161,205.878021 381.687164,203.954941 381.623413,201.912231 
	C381.431641,195.769196 380.966888,189.623993 381.058624,183.486343 
	C381.127228,178.899139 379.384949,176.234055 374.209717,175.257523 
z"/>
<path fill="#000000" opacity="1.000000" stroke="none" 
	d="
M361.693237,233.502258 
	C355.018158,241.534363 345.462280,242.428253 338.809723,235.843567 
	C336.913483,233.966675 334.759796,231.737915 337.309265,229.013016 
	C339.613068,226.550629 341.699738,228.164078 343.767609,229.896332 
	C348.567230,233.916901 352.162384,233.871262 357.183472,230.064743 
	C358.665649,228.941101 359.977692,226.489426 362.199005,228.184143 
	C364.109100,229.641403 362.284027,231.512802 361.693237,233.502258 
z"/>
<path fill="#000000" opacity="1.000000" stroke="none" 
	d="
M261.935822,208.545410 
	C254.156509,208.921997 256.552002,203.386887 255.926880,199.622147 
	C260.698730,198.104584 268.644653,201.339417 270.590179,205.380875 
	C271.417725,207.099945 271.204102,208.597610 269.867828,209.928314 
	C268.662598,211.128479 267.285309,211.339005 265.777008,210.524719 
	C264.608429,209.893829 263.445984,209.251434 261.935822,208.545410 
z"/>
<path fill="#000000" opacity="1.000000" stroke="none" 
	d="
M318.341614,185.744904 
	C318.840271,182.464096 319.913116,179.980255 323.335510,180.424728 
	C326.701172,180.861847 326.395691,183.756790 326.444794,186.235367 
	C326.448059,186.400101 326.462738,186.568192 326.437683,186.729355 
	C325.900085,190.190491 326.362000,195.303574 321.546448,194.913330 
	C316.699799,194.520523 317.713837,189.751266 318.341614,185.744904 
z"/>
</svg>